<svg id="Layer_1" data-name="Layer 1" xmlns="http://www.w3.org/2000/svg" viewBox="0 0 1780.66 1577.22"><defs><style>.cls-1{opacity:0.4;}.cls-10,.cls-12,.cls-13,.cls-17,.cls-18,.cls-2,.cls-3,.cls-4,.cls-5,.cls-6,.cls-7{fill:none;}.cls-2,.cls-3,.cls-4,.cls-5,.cls-6,.cls-7{stroke:#000;}.cls-10,.cls-12,.cls-13,.cls-17,.cls-18,.cls-2,.cls-3,.cls-4,.cls-5,.cls-6,.cls-7,.cls-9{stroke-miterlimit:10;}.cls-2,.cls-3,.cls-6{stroke-width:1.56px;}.cls-2{stroke-dasharray:6.43 21.45;}.cls-3{stroke-dasharray:2.15 37.54;}.cls-4,.cls-5,.cls-7{stroke-width:1.56px;}.cls-5{stroke-dasharray:2.68 10.29;}.cls-6{stroke-dasharray:6.43 10.73;}.cls-7{stroke-dasharray:2.7 10.39;}.cls-8{fill:#a28fff;}.cls-9{fill:#fff;}.cls-10,.cls-12,.cls-13,.cls-17,.cls-18,.cls-9{stroke:#282828;}.cls-10,.cls-9{stroke-width:4.05px;}.cls-11{fill:#480be3;}.cls-12{stroke-width:2.46px;stroke-dasharray:8.36 5.97;}.cls-13{stroke-width:2.46px;stroke-dasharray:8.35 5.97;}.cls-14,.cls-15,.cls-16{fill:#282828;}.cls-15,.cls-19{font-size:32.81px;}.cls-15,.cls-16,.cls-19{font-family:Baskerville-Italic, Baskerville;font-style:italic;}.cls-16{font-size:32.81px;}.cls-17{stroke-width:4.05px;}.cls-18{stroke-width:4.05px;}</style></defs><title>Intro-to-Stellar</title><g class="cls-1"><path class="cls-2" d="M1402.14,6.05V1044.91c0,.24,0,.68,0,.73l0,.37-.07,1.48c0,1-.07,2-.08,3a140,140,0,0,1-2.8,23,120.1,120.1,0,0,1-6.75,21.9,134.53,134.53,0,0,1-10.53,20.5,131.83,131.83,0,0,1-14,18.58,136.36,136.36,0,0,1-36.61,28.43c-.86.42-1.72.86-2.57,1.31a24.75,24.75,0,0,1-2.57,1.3c-1.77.73-3.5,1.56-5.24,2.37q-2.7,1-5.34,2.1c-1.8.65-3.64,1.17-5.43,1.84a135.8,135.8,0,0,1-22.42,5c-1,.11-1.92.24-2.87.38l-1.44.22c-.48,0-1,0-1.46.08-2,.09-3.88.32-5.84.45s-3.95,0-5.93.14a8.14,8.14,0,0,1-1.48,0l-1.48-.06c-1,0-2-.06-3-.07a138.77,138.77,0,0,1-23-2.88,122,122,0,0,1-21.9-6.76,135.82,135.82,0,0,1-39-24.7c-.69-.68-1.4-1.35-2.12-2l-1.08-1-.55-.49-.75-.77-6-6.11c-1.73-1.92-3.49-3.81-5.27-5.69-1.5-1.79-3-3.53-4.51-5.25a109.35,109.35,0,0,1-11.84-17,74.59,74.59,0,0,1-6.21-15c-.21-.7-.43-1.4-.67-2.09a4.67,4.67,0,0,1-.29-1.13l-.25-1.2q-.26-1.18-.57-2.37l-.32-1.17c-.09-.43-.13-.9-.21-1.35-.26-1.82-.62-3.58-1-5.41-.18-2.06-.42-4.1-.71-6.14-.07-.51-.16-1-.22-1.54l-.09-1.73-.22-3.44-.29-3.44c-.07-1.2,0-2.53-.07-3.78l-.09-3.82-.06-1.91,0-1,0-.52,0-1.36q-.18-10.86-.54-21.72a507.79,507.79,0,0,0-11.63-86.51,493.16,493.16,0,0,0-26.53-83.45A504.06,504.06,0,0,0,1004,709l-7.51-7.91-3.78-3.93c-1.27-1.31-2.52-2.62-3.84-3.87q-7.85-7.58-15.8-15-8.18-7.21-16.48-14.3c-1.36-1.19-2.79-2.32-4.21-3.45l-4.28-3.39-8.59-6.73a495.94,495.94,0,0,0-240.34-98.15l-10.85-1.33c-3.62-.36-7.24-.62-10.86-.91l-10.87-.81c-1.82-.11-3.63-.28-5.44-.33l-5.43-.17-10.86-.28-5.43-.11-2.72-.05-2.71.05q-10.86.2-21.73.57a499.05,499.05,0,0,0-471.9,438.33l-1.31,10.85-.87,10.86c-.54,7.25-1.14,14.5-1.25,21.74l-.27,10.86-.16,8.66-.13,9.66c-.4,12.62-1.32,24.49-2.74,35.25-2.81,21.6-8.17,37.77-13,47.32a54.91,54.91,0,0,1-6.91,10.74,41.3,41.3,0,0,1-7.51,6.94,67.83,67.83,0,0,1-13,7.22,146.8,146.8,0,0,1-22.24,7c-8.74,2.23-19.36,3.74-30.68,4.94-2.89.25-5.77.53-8.67.82l-9.18.46c-1.53.08-3,.19-4.6.26l-4.82.06-9.64.19"/><path class="cls-3" d="M1463.39,6.05V1043.18c0,2.69-.06,3.67-.1,5.17l-.11,4.28a201.85,201.85,0,0,1-4.1,33.65,182.2,182.2,0,0,1-9.92,32.2,197.12,197.12,0,0,1-15.42,30,194.63,194.63,0,0,1-20.45,27.08,198.39,198.39,0,0,1-53.38,41.46l-3.77,1.92c-1.26.63-2.47,1.37-3.78,1.89-2.58,1.12-5.13,2.31-7.69,3.47-2.64,1-5.25,2-7.85,3.09s-5.34,1.77-8,2.73a198.15,198.15,0,0,1-32.91,7.41l-4.2.54-2.1.29c-.7.07-1.41.09-2.12.15-2.84.16-5.66.46-8.49.63s-5.71.1-8.56.21a17,17,0,0,1-2.14,0l-2.14-.07-4.28-.1a200.57,200.57,0,0,1-33.62-4.22,182.77,182.77,0,0,1-32.19-10,196.72,196.72,0,0,1-57-36.08L1136,1186l-1.56-1.44-.79-.72-.9-.92-7.26-7.36c-2.2-2.4-4.41-4.8-6.64-7.17-2-2.36-4-4.69-6-7a170.69,170.69,0,0,1-18.31-26.54,135.87,135.87,0,0,1-11.24-27q-.54-1.8-1.11-3.6a13.46,13.46,0,0,1-.48-1.87l-.43-1.92-.91-3.82-.48-1.91c-.13-.66-.23-1.35-.34-2-.45-2.72-1-5.41-1.46-8.15q-.46-4.34-1-8.66c-.09-.73-.2-1.44-.28-2.17l-.14-2.3-.31-4.6-.36-4.59c-.09-1.57-.06-3.22-.11-4.83l-.26-10.31q-.18-9.56-.48-19.09a446.13,446.13,0,0,0-10.21-75.93A431.78,431.78,0,0,0,1041.64,879,442.86,442.86,0,0,0,959,750.61l-6.6-6.94-3.32-3.45c-1.1-1.15-2.2-2.31-3.36-3.4q-6.9-6.65-13.87-13.21-7.2-6.32-14.47-12.55c-1.2-1-2.45-2-3.7-3l-3.76-3-7.54-5.91A434.74,434.74,0,0,0,691.57,613a448,448,0,0,0-76.33-3A437.82,437.82,0,0,0,201.18,994.68L200,1004.2l-.76,9.54c-.46,6.36-1,12.73-1.09,19.09l-.24,9.54-.16,8.08-.15,11a417.79,417.79,0,0,1-3.28,41.87c-3.51,26.57-10.3,49.39-19.09,66.75a115.06,115.06,0,0,1-14.72,22.52A102,102,0,0,1,142,1209.76a129.19,129.19,0,0,1-24.7,13.86A207.75,207.75,0,0,1,85,1234c-11.8,2.94-25,4.83-38.64,6.26l-10.37,1-10.72.55c-1.79.09-3.56.22-5.37.29l-5.52.08-11,.21"/><line class="cls-4" x1="1524.65" y1="6.05" x2="1524.65" y2="14.07"/><path class="cls-5" d="M1524.65,75.14v970.4l-.05,1.35-.15,5.43-.12,5.42c0,1.81-.26,3.61-.37,5.41l-.41,5.4-.19,2.7c-.07.9-.23,1.79-.33,2.68l-1.36,10.73a261.64,261.64,0,0,1-10.24,41.9c-1.17,3.4-2.21,6.84-3.63,10.16l-2,5c-.65,1.67-1.28,3.36-2.07,5l-4.46,9.83-4.93,9.62a261.79,261.79,0,0,1-23.66,36.14,258.13,258.13,0,0,1-29.34,31.79,251.58,251.58,0,0,1-113.48,59.78c-3.51.79-7,1.72-10.56,2.25l-5.31.95c-1.78.31-3.54.7-5.33.87l-10.73,1.37-10.8.83a273.44,273.44,0,0,1-43.31-1l-10.73-1.33-10.64-1.89c-1.78-.25-3.53-.71-5.28-1.11l-5.26-1.2c-3.54-.7-7-1.8-10.44-2.74a258.86,258.86,0,0,1-40.33-15.25l-9.65-4.86-9.4-5.33c-6.16-3.73-12.28-7.55-18.12-11.79-1.46-1.06-3-2-4.41-3.14l-4.27-3.32-4.29-3.3-4.12-3.51c-2.74-2.35-5.55-4.61-8.12-7.15l-4-3.7-2-1.85-2-2.07-4.12-4.17-2.06-2.08-1-1-1-1.06-7.76-8.4-7.28-8.47c-2.3-2.85-4.5-5.72-6.77-8.57a216,216,0,0,1-22.09-35.44,205.69,205.69,0,0,1-14.28-38.46q-1.17-5.13-2.41-10.24c-.68-3.48-1.24-7-1.89-10.53l-.49-2.63c-.18-.87-.23-1.8-.35-2.7l-.66-5.43-.68-5.42c-.13-.9-.19-1.82-.25-2.76l-.19-2.78-.78-11.15-.25-11.41-.34-14.18-.22-8c0-1.33-.11-2.66-.21-4l-.3-4-.61-8c-.2-2.66-.39-5.32-.76-8l-2-15.87-2.81-15.77c-.43-2.63-1.07-5.23-1.66-7.83l-1.8-7.81a384.16,384.16,0,0,0-20.24-60.72,367.8,367.8,0,0,0-30.29-56.33A377.32,377.32,0,0,0,866.76,749,383.67,383.67,0,0,0,813,714.46l-7.13-3.66L802.3,709l-1.79-.91-1.82-.83-14.6-6.6c-4.94-2-9.92-3.95-14.89-5.9-2.47-1-5-1.84-7.54-2.7l-7.59-2.57a385,385,0,0,0-62.29-14.66l-15.88-2c-5.3-.48-10.62-.85-15.93-1.25l-4-.29-4-.11-8-.21c-2.66-.05-5.32-.15-8-.15l-8,.19c-10.64.09-21.27,1-31.88,2l-15.88,2c-1.32.15-2.63.38-3.95.62l-3.94.71-7.88,1.42A386.46,386.46,0,0,0,503,695.22l-14.87,5.95-14.57,6.67c-2.44,1.07-4.78,2.35-7.16,3.57l-7.11,3.68c-4.78,2.38-9.32,5.19-13.95,7.85A377.31,377.31,0,0,0,311.05,857.21a365.6,365.6,0,0,0-27.61,57.71A382.68,382.68,0,0,0,266,976.49a368.17,368.17,0,0,0-6.72,63.54l-.18,8-.1,6.14-.08,6c0,2,0,4-.14,6l-.53,11.93c-.05,2-.27,3.94-.4,5.91l-.45,5.89a392.17,392.17,0,0,1-6.38,45.68,279.4,279.4,0,0,1-12.17,42,201.32,201.32,0,0,1-18.31,36.72,162.95,162.95,0,0,1-56.17,54,217.45,217.45,0,0,1-37.69,17.32L116.4,1289l-10.6,2.93c-.88.24-1.75.51-2.65.73l-2.73.61L95,1294.51l-5.45,1.24c-1.85.37-3.74.67-5.6,1-14.82,2.93-30.4,4.47-46.1,5.68"/><line class="cls-4" x1="10.56" y1="1303.45" x2="3.35" y2="1303.58"/><path class="cls-6" d="M1585.9,6.05V1043.18c0,4.61-.2,9.21-.29,13.82a325.23,325.23,0,0,1-6.72,54.83C1563.6,1184,1522,1250.3,1463.55,1295.34a319.69,319.69,0,0,1-46.37,30l-6.15,3.15c-2.07,1-4.08,2.16-6.2,3.06-4.2,1.89-8.39,3.82-12.61,5.68l-12.86,5.07c-4.33,1.58-8.73,3-13.08,4.49A320.82,320.82,0,0,1,1312.4,1359l-6.86.87-3.43.43c-1.15.12-2.3.19-3.45.28-4.59.33-9.19.74-13.79,1l-13.82.35c-1.15,0-2.31,0-3.46,0l-3.45-.08-6.92-.18a322,322,0,0,1-54.8-6.89,304.54,304.54,0,0,1-52.77-16.33,319.6,319.6,0,0,1-93-58.84l-5-4.73-2.52-2.36-1.26-1.19-1.22-1.23-9.71-9.85-9.39-10.14-9-10.49A293.23,293.23,0,0,1,987.24,1194c-17.87-32.3-28.25-68.44-32-105.1-.14-1.14-.3-2.28-.41-3.43l-.25-3.45-.49-6.89-.49-6.9c-.12-2.3-.12-4.61-.19-6.91l-.67-27.65A325.52,325.52,0,0,0,945.36,979a309.29,309.29,0,0,0-16.72-52.65,320.05,320.05,0,0,0-59.57-92.55l-4.77-5-2.39-2.5c-.79-.84-1.58-1.68-2.43-2.46l-10-9.54L839,805.2c-.86-.77-1.76-1.48-2.67-2.18l-2.72-2.14-5.44-4.27a319.51,319.51,0,0,0-97.81-50.47,322.9,322.9,0,0,0-109.21-13.71,315.28,315.28,0,0,0-298.4,277.15l-.86,6.86-.52,6.89c-.33,4.6-.78,9.19-.8,13.8s-.25,9.22-.32,13.83l-.19,13.83a537.89,537.89,0,0,1-4.36,55.11A369.64,369.64,0,0,1,304.51,1174a293.08,293.08,0,0,1-20,51.48,238,238,0,0,1-30.31,46.1,225.07,225.07,0,0,1-40.45,37.49,251.41,251.41,0,0,1-48.09,27.1,328.86,328.86,0,0,1-52.56,17c-17.92,4.38-36.21,7-54.54,8.93l-13.77,1.26-13.81.73c-2.3.12-4.6.27-6.9.35l-6.92.12-13.82.24"/><path class="cls-3" d="M1647.15,6.05V1043.18c0,2.11-.06,5.08-.12,7.78l-.21,8.23a385.75,385.75,0,0,1-8,65.41,365.26,365.26,0,0,1-19.41,63.1,380.39,380.39,0,0,1-30.12,58.68,376.48,376.48,0,0,1-39.76,52.55,381.89,381.89,0,0,1-103.68,80.56l-7.35,3.77c-2.47,1.23-4.88,2.56-7.41,3.65-5,2.28-10,4.57-15.06,6.78l-15.37,6.06c-5.17,1.9-10.42,3.59-15.63,5.37a381.24,381.24,0,0,1-64.37,14.53l-8.19,1-4.09.51c-1.37.13-2.74.22-4.11.34-5.48.41-11,.88-16.44,1.18l-16.46.42c-1.37,0-2.74,0-4.11,0l-4.12-.09-8.22-.21a376,376,0,0,1-239.47-98l-6-5.64-3-2.82-1.5-1.42-1.37-1.38c-3.65-3.69-7.31-7.35-10.93-11.1l-10.77-11.63-10.51-12.23a354.27,354.27,0,0,1-37.72-55.05,320,320,0,0,1-26.33-62.9l-2.41-8.14c-.42-1.35-.74-2.72-1.06-4.08l-1-4.09-1.92-8.18-.95-4.1c-.28-1.36-.51-2.72-.76-4.08-1-5.45-2-10.91-2.87-16.35l-2-16.26c-.16-1.35-.34-2.71-.48-4.06l-.29-4-.58-8-.56-8c-.14-2.67-.15-5.3-.23-8l-.64-26.76a262.85,262.85,0,0,0-5.95-44.16A249.1,249.1,0,0,0,872.15,950a259,259,0,0,0-48.06-74.63l-3.86-4-1.92-2c-.64-.68-1.27-1.37-2-2l-8.08-7.71-8.44-7.31c-.69-.63-1.43-1.19-2.16-1.76l-2.2-1.72-4.39-3.45a258.06,258.06,0,0,0-78.81-40.68,261.36,261.36,0,0,0-88.14-11A264.89,264.89,0,0,0,580,799.7c-7.26,1.55-14.38,3.66-21.47,5.82L548,809.12l-10.33,4.14a255.55,255.55,0,0,0-128.11,119,247.2,247.2,0,0,0-26,84.72l-.72,5.53-.4,5.57c-.26,3.71-.66,7.42-.64,11.16l-.14,5.59-.09,2.8,0,.7v.93l0,1.9-.22,15.22a597.68,597.68,0,0,1-4.9,61.73,432.42,432.42,0,0,1-13,62.76,355,355,0,0,1-24.23,62.25,299.9,299.9,0,0,1-38.11,57.89,286.55,286.55,0,0,1-51.44,47.68,312.73,312.73,0,0,1-59.78,33.73,390.93,390.93,0,0,1-62.66,20.35,468,468,0,0,1-62.49,10.25l-15.48,1.41-15.35.83c-2.55.12-5.12.28-7.67.38l-7.61.14-15.22.25"/><path class="cls-2" d="M1708.4,6.05V1043.18c0,1.92-.06,5.55-.13,8.65l-.24,9.54a445.64,445.64,0,0,1-9.34,76,426.08,426.08,0,0,1-22.57,73.39,440.52,440.52,0,0,1-201.67,222.87l-8.54,4.38c-2.86,1.43-5.68,3-8.61,4.24-5.83,2.66-11.66,5.32-17.53,7.88q-8.91,3.57-17.88,7c-6,2.21-12.1,4.2-18.17,6.25a443.42,443.42,0,0,1-74.86,16.91l-9.51,1.2-4.76.58c-1.59.16-3.18.27-4.77.4-6.36.49-12.73,1-19.09,1.38q-9.54.3-19.09.48c-1.59.06-3.18,0-4.77,0l-4.78-.1-9.54-.24a437.27,437.27,0,0,1-278.36-113.88l-7-6.54-3.48-3.29-1.74-1.65-1.53-1.53c-4.06-4.11-8.11-8.16-12.15-12.34l-12.14-13.13c-4-4.61-8-9.3-12-14A415.87,415.87,0,0,1,880,1253.16a382.53,382.53,0,0,1-31.37-74.88l-2.83-9.66c-.5-1.61-.88-3.21-1.26-4.82l-1.16-4.81-2.27-9.63-1.1-4.83c-.32-1.59-.6-3.18-.89-4.77-1.16-6.35-2.3-12.73-3.34-19.09q-1.22-9.37-2.33-18.78l-.54-4.7-.35-4.59-.66-9.2-.63-9.2c-.16-3-.18-6-.27-9l-.6-25.89a203.24,203.24,0,0,0-4.54-33.56,187.59,187.59,0,0,0-10.17-32.12,197.27,197.27,0,0,0-36.54-56.71l-3-3.07-1.45-1.55c-.49-.52-1-1-1.49-1.52q-3.12-2.89-6.15-5.88-3.26-2.74-6.44-5.56A19.16,19.16,0,0,0,759,898l-1.68-1.3L754,894.07a196.76,196.76,0,0,0-59.81-30.9,194.44,194.44,0,0,0-33-7,191.85,191.85,0,0,0-67.61,3.28c-5.51,1.15-10.89,2.79-16.27,4.4q-4,1.41-8,2.72-3.9,1.62-7.84,3.14a198.74,198.74,0,0,0-56.65,36.65,191.17,191.17,0,0,0-60.44,118.14l-.56,4.2-.28,4.25c-.19,2.83-.55,5.64-.5,8.51l-.11,4.28-.07,2.14,0,.53v1l0,2.07-.25,16.61a660.4,660.4,0,0,1-5.42,68.35,494.27,494.27,0,0,1-14.85,71.41,415.85,415.85,0,0,1-28.46,73,360.9,360.9,0,0,1-45.92,69.68,347.55,347.55,0,0,1-62.41,57.87A374.37,374.37,0,0,1,214,1448.75a450.1,450.1,0,0,1-72.76,23.68c-24,5.82-47.45,9.21-70.45,11.59l-17.17,1.55-16.9.92c-2.81.14-5.64.31-8.44.41l-8.31.16-16.61.27"/><path class="cls-7" d="M1769.65,6.05V1044.91l0,2.35-.1,5.44-.28,10.86a508.18,508.18,0,0,1-10.64,86.59,488.55,488.55,0,0,1-25.74,83.69,501.63,501.63,0,0,1-229.77,253.94l-9.74,5c-3.26,1.63-6.48,3.35-9.82,4.83-6.64,3-13.28,6.07-20,9q-10.15,4.11-20.39,8.05c-6.85,2.52-13.8,4.8-20.73,7.13a503.52,503.52,0,0,1-85.34,19.28l-10.84,1.37-5.42.65c-1.81.18-3.62.32-5.44.47-7.24.57-14.49,1.17-21.73,1.56s-14.49.42-21.73.55c-1.81.06-3.62,0-5.43,0l-5.43-.1-10.86-.29A498.48,498.48,0,0,1,933,1415.46l-8-7.45-4-3.75-2-1.88-1.68-1.68c-4.48-4.52-8.92-9-13.38-13.59q-6.79-7.27-13.51-14.61c-4.54-5.19-9-10.46-13.52-15.73a476.73,476.73,0,0,1-50.65-74,443.87,443.87,0,0,1-36.4-86.87l-3.27-11.17c-.56-1.87-1-3.71-1.46-5.55l-1.34-5.54-2.6-11.09L780,1157c-.37-1.83-.69-3.64-1-5.46-1.33-7.26-2.64-14.56-3.81-21.82q-1.39-10.65-2.65-21.31l-.6-5.33-.4-5.17-.76-10.35-.69-10.35c-.17-3.41-.21-6.69-.32-10l-.4-19.09q-.17-3-.16-5.92a140.33,140.33,0,0,0-3.12-23,126.67,126.67,0,0,0-6.89-21.86,136.67,136.67,0,0,0-25-38.8c-.69-.69-1.37-1.39-2-2.1l-1-1.08a11.14,11.14,0,0,0-1-1q-2.18-2-4.23-4c-1.51-1.23-3-2.49-4.42-3.81a11.07,11.07,0,0,0-1.13-.92l-1.17-.88c-.77-.59-1.53-1.2-2.28-1.81a135.35,135.35,0,0,0-40.81-21.12,133.11,133.11,0,0,0-22.5-4.75c-1-.12-1.92-.26-2.87-.42s-1.95-.1-2.92-.18-2-.15-2.92-.24a14.36,14.36,0,0,0-1.46-.12h-1.49c-1,0-2,0-3-.07l-1.48-.07-.74,0-.74,0c-2,.11-4,.15-5.92.14a143.74,143.74,0,0,0-23,3.19c-3.76.76-7.4,1.92-11.07,3q-2.68,1-5.43,1.84c-1.76.77-3.53,1.48-5.33,2.15a137.19,137.19,0,0,0-38.77,25.09,134.86,134.86,0,0,0-36.64,58.19,133,133,0,0,0-4.69,22.52c-.12,1-.26,1.91-.42,2.87s-.09,2-.16,2.92c-.12,2-.42,3.88-.35,5.87,0,1,0,2-.07,3l-.07,1.48,0,.37,0,1.07,0,2.25-.27,18a720.67,720.67,0,0,1-6,75,555.86,555.86,0,0,1-16.67,80,477.17,477.17,0,0,1-32.69,83.81A422.39,422.39,0,0,1,394.72,1390a409,409,0,0,1-73.4,68.06,435.09,435.09,0,0,1-83.17,47,512.27,512.27,0,0,1-82.86,27c-27.1,6.53-53.07,10.29-78.41,12.91L58,1546.66l-18.44,1c-3.06.15-6.16.33-9.2.44l-9,.18-18,.28"/></g><circle class="cls-8" cx="533.02" cy="675.52" r="156.17"/><circle class="cls-9" cx="495.29" cy="675.52" r="156.17"/><line class="cls-10" x1="650.97" y1="676.43" x2="706.37" y2="676.43"/><line class="cls-10" x1="645.45" y1="631.49" x2="698.95" y2="631.49"/><line class="cls-10" x1="624.72" y1="586.55" x2="678.47" y2="586.55"/><line class="cls-10" x1="645.17" y1="721.37" x2="698.98" y2="721.37"/><line class="cls-10" x1="622.24" y1="766.32" x2="678.42" y2="766.32"/><circle class="cls-9" cx="494.72" cy="675.19" r="74.9"/><line class="cls-9" x1="566.39" y1="602.73" x2="405.23" y2="729.07"/><line class="cls-9" x1="582.14" y1="622.42" x2="420.98" y2="748.76"/><line class="cls-10" x1="573.14" y1="811.2" x2="629.22" y2="811.2"/><line class="cls-10" x1="575.61" y1="541.69" x2="629.37" y2="541.69"/><circle class="cls-11" cx="270.73" cy="1212.5" r="78.77"/><line class="cls-12" x1="270.74" y1="1212.43" x2="402.66" y2="1445.75"/><line class="cls-12" x1="271.3" y1="1212.33" x2="455.9" y2="1410.77"/><line class="cls-12" x1="274.44" y1="1213.8" x2="528.88" y2="1296.94"/><line class="cls-12" x1="270.65" y1="1212.61" x2="535.31" y2="1217.6"/><line class="cls-12" x1="271.24" y1="1212.57" x2="497.32" y2="1360.02"/><circle class="cls-8" cx="1587.12" cy="1450.4" r="78.77"/><circle class="cls-10" cx="1507.83" cy="1377.22" r="78.77"/><line class="cls-13" x1="1508.42" y1="1376.46" x2="1454.71" y2="1116.62"/><line class="cls-13" x1="1508.47" y1="1376.67" x2="1393.51" y2="1134.32"/><line class="cls-13" x1="1508.6" y1="1376.18" x2="1290.18" y2="1221.52"/><line class="cls-13" x1="1509.31" y1="1377.42" x2="1260.6" y2="1295.43"/><line class="cls-13" x1="1508.31" y1="1375.8" x2="1338.96" y2="1170.58"/><circle class="cls-8" cx="1640.73" cy="236.36" r="36"/><circle class="cls-9" cx="1682.03" cy="283.33" r="50.67"/><circle class="cls-11" cx="1705.11" cy="540.46" r="36"/><circle class="cls-9" cx="1682.03" cy="283.33" r="15.76"/><circle class="cls-9" cx="1393.83" cy="132.48" r="50.67"/><circle class="cls-9" cx="1378.84" cy="132.48" r="50.67"/><polyline class="cls-13" points="1425.65 206.72 1546.4 387.19 1604.31 305.88"/><circle class="cls-9" cx="1553.99" cy="462.61" r="50.67"/><circle class="cls-9" cx="1539" cy="462.61" r="50.67"/><path class="cls-10" d="M1560.67,443a21.67,21.67,0,0,1-43.33,0"/><line class="cls-10" x1="1539" y1="464.61" x2="1539" y2="492.91"/><line class="cls-10" x1="1551.22" y1="475.19" x2="1526.79" y2="475.19"/><line class="cls-10" x1="1551.22" y1="482.78" x2="1526.79" y2="482.78"/><line class="cls-13" x1="1682.05" y1="596.65" x2="1644.57" y2="708.24"/><ellipse class="cls-14" cx="1424.49" cy="205.14" rx="6.25" ry="6.45"/><ellipse class="cls-14" cx="1546.4" cy="387.8" rx="6.25" ry="6.45"/><ellipse class="cls-14" cx="1608.32" cy="301.57" rx="6.25" ry="6.45"/><ellipse class="cls-14" cx="1682.69" cy="595.49" rx="6.45" ry="6.25" transform="translate(837.07 2167.42) rotate(-81.21)"/><ellipse class="cls-14" cx="1644.63" cy="707.76" rx="6.45" ry="6.25" transform="translate(693.87 2224.93) rotate(-81.21)"/><text class="cls-15" transform="matrix(1, -0.03, 0.03, 1, 22.85, 1407.39)"> </text><text class="cls-15" transform="translate(32.88 1407.08) rotate(-3.18)"> </text><text class="cls-15" transform="matrix(1, -0.08, 0.08, 1, 42.87, 1406.5)"> </text><text class="cls-15" transform="matrix(0.99, -0.1, 0.1, 0.99, 52.81, 1405.69)"> </text><text class="cls-15" transform="translate(62.75 1404.66) rotate(-7.04)"> </text><text class="cls-15" transform="matrix(0.99, -0.14, 0.14, 0.99, 72.64, 1403.42)"> </text><text class="cls-15" transform="translate(82.51 1401.97) rotate(-9.49)"> </text><text class="cls-15" transform="matrix(0.98, -0.19, 0.19, 0.98, 92.34, 1400.31)"> </text><text class="cls-15" transform="translate(102.14 1398.43) rotate(-11.99)"> </text><text class="cls-15" transform="translate(111.9 1396.34) rotate(-13.28)"> </text><text class="cls-15" transform="matrix(0.96, -0.27, 0.27, 0.96, 121.86, 1394.08)">N</text><text class="cls-15" transform="translate(144.27 1387.7) rotate(-18.14)">o</text><text class="cls-15" transform="translate(157.52 1383.34) rotate(-20.34)">d</text><text class="cls-15" transform="translate(172.2 1377.82) rotate(-22.49)">e</text><text class="cls-15" transform="translate(183.09 1373.27) rotate(-24.27)"> </text><text class="cls-15" transform="translate(192.46 1369.1) rotate(-26.71)">1</text><text class="cls-16" transform="matrix(0.65, -0.76, 0.76, 0.65, 1593.42, 1309.51)"> </text><text class="cls-16" transform="translate(1600.05 1301.75) rotate(-51.51)"> </text><text class="cls-16" transform="matrix(0.58, -0.82, 0.82, 0.58, 1606.63, 1293.63)">N</text><text class="cls-16" transform="translate(1620 1274.44) rotate(-57.64)">o</text><text class="cls-16" transform="matrix(0.5, -0.86, 0.86, 0.5, 1627.43, 1262.66)">d</text><text class="cls-16" transform="translate(1635.23 1249.2) rotate(-61.43)">e</text><text class="cls-16" transform="translate(1640.8 1238.91) rotate(-62.71)"> </text><text class="cls-16" transform="translate(1645.43 1229.98) rotate(-64.28)">2</text><path class="cls-10" d="M1378.79,132.27a11.4,11.4,0,1,1,10.52-16"/><path class="cls-10" d="M1378.79,132.27a11.4,11.4,0,1,1-10.92,14.93"/><line class="cls-10" x1="1379.24" y1="108.65" x2="1379.28" y2="102.79"/><line class="cls-10" x1="1378.88" y1="162.26" x2="1378.92" y2="155.29"/><circle class="cls-14" cx="217.98" cy="775.2" r="5.16"/><circle class="cls-14" cx="623.73" cy="916.7" r="5.16"/><rect class="cls-14" x="255.98" y="1005.15" width="10.32" height="10.32" transform="translate(-335.35 1866.54) rotate(-130.64)"/><circle class="cls-14" cx="790.9" cy="702.94" r="5.16"/><circle class="cls-14" cx="1231.69" cy="1172.7" r="5.16"/><rect class="cls-14" x="1124.03" y="1455.85" width="10.32" height="10.32" transform="translate(366.1 3142.47) rotate(-117.89)"/><circle class="cls-14" cx="1183.35" cy="1475.74" r="5.16"/><rect class="cls-14" x="1641.8" y="1033.68" width="10.32" height="10.32" transform="translate(2020.56 2949.88) rotate(-133.3)"/><rect class="cls-14" x="1397.25" y="561.42" width="10.32" height="10.32" transform="translate(1995.4 1958.02) rotate(-135.08)"/><rect class="cls-14" x="1580.74" y="89.72" width="10.32" height="10.32" transform="translate(2641.89 1281.87) rotate(-135.08)"/><circle class="cls-14" cx="1770.17" cy="832.82" r="5.16"/><circle class="cls-14" cx="1645.51" cy="1078.77" r="5.16"/><circle class="cls-14" cx="1463.89" cy="920.06" r="5.16"/><rect class="cls-14" x="170.46" y="1521.79" width="10.32" height="10.32" transform="translate(-442.27 2934.31) rotate(-149.74)"/><path class="cls-10" d="M579.25,927.73s-78.86,31.66-75.92,141"/><path class="cls-10" d="M1265.9,1546s73.08,1.12,141.37-19.63"/><circle class="cls-9" cx="1634.82" cy="779.53" r="50.67"/><circle class="cls-9" cx="1619.83" cy="779.53" r="50.67"/><path class="cls-17" d="M1636.77,767.19s-5.84-8.9-15.3-8.9-20,7.09-20,21.55,11.54,20.72,18.91,20.72a20.92,20.92,0,0,0,16.82-9"/><line class="cls-17" x1="1594.5" y1="773.87" x2="1617.16" y2="773.87"/><line class="cls-17" x1="1594.5" y1="785.41" x2="1617.16" y2="785.41"/><circle class="cls-14" cx="71.87" cy="1174.18" r="5.16"/><path class="cls-10" d="M154.65,912.49s-17,52.79-17.69,107.61"/><circle class="cls-14" cx="267" cy="971.67" r="5.16"/><line class="cls-18" x1="849.09" y1="1319.88" x2="825.01" y2="1404.76"/><polyline class="cls-18" points="848.26 1319.54 1009.36 1215.52 1114.8 1245.13"/><polyline class="cls-18" points="1008.77 1215.21 985.82 1054.83 1200.15 947.15"/><line class="cls-18" x1="849.18" y1="1318.91" x2="717.05" y2="1299.59"/><circle class="cls-14" cx="708.31" cy="1298.78" r="9.82"/><circle class="cls-14" cx="824.59" cy="1406.13" r="9.82"/><circle class="cls-14" cx="1009.12" cy="1215.56" r="9.82"/><circle class="cls-14" cx="1122.09" cy="1246.68" r="9.82"/><circle class="cls-14" cx="1104.24" cy="1092.76" r="9.82"/><circle class="cls-14" cx="986.8" cy="1055.29" r="9.82"/><circle class="cls-14" cx="1206.08" cy="944.29" r="9.82"/><line class="cls-18" x1="1103.16" y1="1092.37" x2="986.32" y2="1055.4"/><circle class="cls-14" cx="1019.54" cy="936.33" r="9.82"/><line class="cls-18" x1="986.67" y1="1054.12" x2="1018.53" y2="940.4"/><circle class="cls-14" cx="848.51" cy="1319.59" r="9.82"/><text class="cls-19" transform="translate(854.16 1015.09) rotate(91.92)">O</text><text class="cls-19" transform="matrix(0, 1, -1, 0, 853.48, 1037.9)">p</text><text class="cls-19" transform="matrix(0.02, 1, -1, 0.02, 853.5, 1052.94)">e</text><text class="cls-19" transform="translate(853.73 1064.21) rotate(87.47)">n</text><text class="cls-19" transform="matrix(0.07, 1, -1, 0.07, 854.46, 1079.69)"> </text><text class="cls-19" transform="translate(855.06 1089.78) rotate(84.34)">N</text><text class="cls-19" transform="matrix(0.14, 0.99, -0.99, 0.14, 857.48, 1112.83)">e</text><text class="cls-19" transform="translate(859.11 1124.47) rotate(80.76)">t</text><text class="cls-19" transform="translate(860.61 1134.29) rotate(78.36)">w</text><text class="cls-19" transform="translate(865.36 1156.51) rotate(75.21)">o</text><text class="cls-19" transform="translate(869.01 1170.07) rotate(72.69)">r</text><text class="cls-19" transform="translate(872.4 1180.95) rotate(69.82)">k</text><path class="cls-10" d="M845,593.48s107.19,49.94,174.79,132.16"/><rect class="cls-14" x="863.04" y="744.63" width="10.32" height="10.32" transform="translate(234.81 1706.23) rotate(-97.3)"/><circle class="cls-14" cx="807.44" cy="954.93" r="5.16"/><line class="cls-10" x1="1402.02" y1="748.52" x2="1402.02" y2="887.24"/><circle class="cls-14" cx="1769.9" cy="386.9" r="5.16"/></svg>